<svg width="166" height="188" viewBox="0 0 166 188" fill="none" xmlns="http://www.w3.org/2000/svg">
<rect width="81" height="81" rx="5" fill="#008F98"/>
<path d="M21.8352 23.0909H28.2273L39.3409 50.2273H39.75L50.8636 23.0909H57.2557V58H52.2443V32.7386H51.9205L41.625 57.9489H37.4659L27.1705 32.7216H26.8466V58H21.8352V23.0909Z" fill="white"/>
<rect x="85" y="107" width="81" height="81" rx="5" fill="#008F98"/>
<path d="M106.835 129.091H113.227L124.341 156.227H124.75L135.864 129.091H142.256V164H137.244V138.739H136.92L126.625 163.949H122.466L112.17 138.722H111.847V164H106.835V129.091Z" fill="white"/>
<rect x="85" y="22" width="81" height="81" rx="5" fill="#F5831A"/>
<path d="M124.864 87.9091C120.924 87.9091 117.468 86.9716 114.494 85.0966C111.54 83.2216 109.229 80.5985 107.562 77.2273C105.915 73.8561 105.091 69.9167 105.091 65.4091C105.091 60.8636 105.915 56.8958 107.562 53.5057C109.229 50.1155 111.54 47.483 114.494 45.608C117.468 43.733 120.924 42.7955 124.864 42.7955C128.803 42.7955 132.25 43.733 135.205 45.608C138.178 47.483 140.489 50.1155 142.136 53.5057C143.803 56.8958 144.636 60.8636 144.636 65.4091C144.636 69.9167 143.803 73.8561 142.136 77.2273C140.489 80.5985 138.178 83.2216 135.205 85.0966C132.25 86.9716 128.803 87.9091 124.864 87.9091ZM124.864 81.8864C127.856 81.8864 130.318 81.1193 132.25 79.5852C134.182 78.0511 135.612 76.0341 136.54 73.5341C137.468 71.0341 137.932 68.3258 137.932 65.4091C137.932 62.4924 137.468 59.7746 136.54 57.2557C135.612 54.7367 134.182 52.7008 132.25 51.1477C130.318 49.5947 127.856 48.8182 124.864 48.8182C121.871 48.8182 119.409 49.5947 117.477 51.1477C115.545 52.7008 114.116 54.7367 113.188 57.2557C112.259 59.7746 111.795 62.4924 111.795 65.4091C111.795 68.3258 112.259 71.0341 113.188 73.5341C114.116 76.0341 115.545 78.0511 117.477 79.5852C119.409 81.1193 121.871 81.8864 124.864 81.8864Z" fill="white"/>
<rect y="85" width="81" height="81" rx="5" fill="#F5831A"/>
<path d="M39.8636 147.909C35.9242 147.909 32.4678 146.972 29.4943 145.097C26.5398 143.222 24.2292 140.598 22.5625 137.227C20.9148 133.856 20.0909 129.917 20.0909 125.409C20.0909 120.864 20.9148 116.896 22.5625 113.506C24.2292 110.116 26.5398 107.483 29.4943 105.608C32.4678 103.733 35.9242 102.795 39.8636 102.795C43.803 102.795 47.25 103.733 50.2045 105.608C53.178 107.483 55.4886 110.116 57.1364 113.506C58.803 116.896 59.6364 120.864 59.6364 125.409C59.6364 129.917 58.803 133.856 57.1364 137.227C55.4886 140.598 53.178 143.222 50.2045 145.097C47.25 146.972 43.803 147.909 39.8636 147.909ZM39.8636 141.886C42.8561 141.886 45.3182 141.119 47.25 139.585C49.1818 138.051 50.6117 136.034 51.5398 133.534C52.4678 131.034 52.9318 128.326 52.9318 125.409C52.9318 122.492 52.4678 119.775 51.5398 117.256C50.6117 114.737 49.1818 112.701 47.25 111.148C45.3182 109.595 42.8561 108.818 39.8636 108.818C36.8712 108.818 34.4091 109.595 32.4773 111.148C30.5455 112.701 29.1155 114.737 28.1875 117.256C27.2595 119.775 26.7955 122.492 26.7955 125.409C26.7955 128.326 27.2595 131.034 28.1875 133.534C29.1155 136.034 30.5455 138.051 32.4773 139.585C34.4091 141.119 36.8712 141.886 39.8636 141.886Z" fill="white"/>
</svg>
