<svg width="28" height="28" viewBox="0 0 28 28" fill="none" xmlns="http://www.w3.org/2000/svg">
<path d="M9.50832 21.8458C9.25554 21.1069 9.0368 20.3583 8.85207 19.5999C8.66735 18.8416 8.50693 18.0735 8.37082 17.2958L6.41666 18.6083V23.0999L9.50832 21.8458ZM13.7083 4.78327C12.3667 6.2416 11.3993 7.79229 10.8062 9.43535C10.2132 11.0784 9.91666 12.9888 9.91666 15.1666C9.91666 16.0222 10.0333 17.0187 10.2667 18.1562C10.5 19.2937 10.8305 20.436 11.2583 21.5833H16.7417C17.1694 20.436 17.5 19.2937 17.7333 18.1562C17.9667 17.0187 18.0833 16.0222 18.0833 15.1666C18.0833 12.9888 17.7868 11.0784 17.1937 9.43535C16.6007 7.79229 15.6333 6.2416 14.2917 4.78327C14.2528 4.74438 14.209 4.71521 14.1604 4.69577C14.1118 4.67632 14.0583 4.6666 14 4.6666C13.9417 4.6666 13.8882 4.67632 13.8396 4.69577C13.791 4.71521 13.7472 4.74438 13.7083 4.78327ZM14 14.8749C13.4361 14.8749 12.9549 14.6756 12.5562 14.277C12.1576 13.8784 11.9583 13.3972 11.9583 12.8333C11.9583 12.2694 12.1576 11.7881 12.5562 11.3895C12.9549 10.9909 13.4361 10.7916 14 10.7916C14.5639 10.7916 15.0451 10.9909 15.4437 11.3895C15.8424 11.7881 16.0417 12.2694 16.0417 12.8333C16.0417 13.3972 15.8424 13.8784 15.4437 14.277C15.0451 14.6756 14.5639 14.8749 14 14.8749ZM18.4917 21.8458L21.5833 23.0999V18.6083L19.6292 17.2958C19.493 18.0735 19.3326 18.8416 19.1479 19.5999C18.9632 20.3583 18.7444 21.1069 18.4917 21.8458ZM14.6417 2.6541C16.4111 4.34577 17.7187 6.21243 18.5646 8.2541C19.4104 10.2958 19.8333 12.5999 19.8333 15.1666V15.3124L22.5458 17.1499C22.7986 17.3055 22.993 17.5097 23.1292 17.7624C23.2653 18.0152 23.3333 18.2874 23.3333 18.5791V24.3833C23.3333 24.6944 23.2069 24.9374 22.9542 25.1124C22.7014 25.2874 22.4292 25.3166 22.1375 25.1999L17.5 23.3333H10.5L5.86249 25.1999C5.57082 25.3166 5.2986 25.2874 5.04582 25.1124C4.79305 24.9374 4.66666 24.6944 4.66666 24.3833V18.5791C4.66666 18.2874 4.73471 18.0152 4.87082 17.7624C5.00693 17.5097 5.20138 17.3055 5.45416 17.1499L8.16666 15.3124V15.1666C8.16666 12.5999 8.58957 10.2958 9.43541 8.2541C10.2812 6.21243 11.5889 4.34577 13.3583 2.6541C13.4555 2.55688 13.5625 2.48882 13.6792 2.44993C13.7958 2.41105 13.9028 2.3916 14 2.3916C14.1167 2.3916 14.2285 2.41105 14.3354 2.44993C14.4424 2.48882 14.5444 2.55688 14.6417 2.6541Z" fill="white"/>
</svg>
